#!OML:ASF H:\Dans Jumps\Project 1\Capture day 1\Session 1\subject.ASF
:FULLY-SPECIFIED
:DEGREES
880
root -0.805876 17.5821 2.00587 12.7076 9.75403 -1.66364
lowerback 0.625073 3.5425 2.18277
upperback 4.94701 4.61516 1.90254
thorax 4.77432 2.34351 0.913605
lowerneck -11.3978 -3.4167 -3.16748
upperneck -6.59895 -4.12846 0.962826
head -0.0906721 -1.97742 0.682707
rclavicle 1.66979e-014 -2.38542e-015
rhumerus -18.196 -0.0278643 -76.1507
rradius 31.5422
rwrist 31.2255
rhand -24.5594 -22.0467
rfingers 7.12502
rthumb 1.93708 -52.0176
lclavicle 1.66979e-014 -2.38542e-015
lhumerus -38.2996 -10.8301 87.9565
lradius 39.6409
lwrist 15.6531
lhand -23.9072 -6.32964
lfingers 7.12502
lthumb 2.56701 23.6347
rfemur -27.2511 -16.8376 25.9591
rtibia 31.4298
rfoot -25.0982 -1.10041
rtoes -2.37898
lfemur -27.6608 0.174021 -11.3323
ltibia 27.7426
lfoot -10.4564 4.76215
ltoes 5.92306
881
root -0.78595 17.5723 2.01775 12.5218 10.0226 -1.67152
lowerback 0.622372 3.49536 2.33629
upperback 4.86191 4.55041 1.92369
thorax 4.69719 2.31673 0.844438
lowerneck -11.3403 -3.39573 -3.04092
upperneck -6.51409 -4.11887 0.862871
head -0.0788871 -1.97682 0.631199
rclavicle 5.76476e-014 -3.18055e-015
rhumerus -18.0265 -0.462901 -76.2389
rradius 31.6763
rwrist 31.118
rhand -24.7524 -22.112
rfingers 7.12502
rthumb 1.75068 -52.0846
lclavicle 5.76476e-014 -3.18055e-015
lhumerus -38.3904 -10.6535 87.8893
lradius 40.1062
lwrist 15.8072
lhand -23.9362 -6.3433
lfingers 7.12502
lthumb 2.53893 23.6213
rfemur -27.022 -16.4108 25.7778
rtibia 31.6018
rfoot -25.1332 -1.83584
rtoes -2.18657
lfemur -27.617 0.302813 -11.4729
ltibia 27.8583
lfoot -10.499 4.514
ltoes 6.49248
882
root -0.760018 17.5644 2.03355 12.3294 10.2786 -1.63161
lowerback 0.557928 3.43903 2.51103
upperback 4.81347 4.47066 1.92402
thorax 4.6966 2.28389 0.747808
lowerneck -11.3633 -3.43371 -2.98634
upperneck -6.30612 -4.17629 0.786625
head -0.0120951 -2.00922 0.594469
rclavicle 1.82882e-014 -1.66979e-014
rhumerus -17.8022 -0.873373 -76.3361
rradius 31.8526
rwrist 31.0242
rhand -24.7784 -22.3625
rfingers 7.12502
rthumb 1.72557 -52.3352
lclavicle 1.82882e-014 -1.66979e-014
lhumerus -38.3639 -10.4845 87.8313
lradius 40.4546
lwrist 16.0141
lhand -23.9329 -6.26601
lfingers 7.12502
lthumb 2.5422 23.6986
rfemur -26.7829 -16.2154 25.5523
rtibia 31.7853
rfoot -25.074 -2.38201
rtoes -1.66088
lfemur -27.5202 0.478516 -11.7206
ltibia 28.0292
lfoot -10.6814 4.22419
ltoes 6.54147
883
root -0.737544 17.5541 2.03775 12.1203 10.5566 -1.71728
lowerback 0.621693 3.36257 2.81476
upperback 4.75364 4.36548 1.95344
thorax 4.61863 2.24261 0.599658
lowerneck -11.3244 -3.43831 -3.08315
upperneck -6.17284 -4.17162 0.849534
head 0.0275468 -2.0057 0.629613
rclavicle -4.01545e-014 1.43125e-014
rhumerus -17.4713 -1.17061 -76.4757
rradius 31.9704
rwrist 30.8363
rhand -24.8359 -22.6212
rfingers 7.12502
rthumb 1.67003 -52.5944
lclavicle -4.01545e-014 1.43125e-014
lhumerus -38.3192 -10.301 87.7381
lradius 40.8321
lwrist 16.2264
lhand -24.0309 -6.12868
lfingers 7.12502
lthumb 2.44748 23.837
rfemur -26.5983 -15.5053 25.4146
rtibia 32.0008
rfoot -24.8603 -3.33553
rtoes -0.423687
lfemur -27.4747 0.452803 -11.7575
ltibia 28.2597
lfoot -10.9359 4.13394
ltoes 6.52335
884
root -0.711543 17.5448 2.04944 11.8774 10.7836 -1.74032
lowerback 0.626989 3.28817 3.09001
upperback 4.75335 4.26103 1.95563
thorax 4.6353 2.20173 0.446131
lowerneck -11.6285 -3.40363 -3.04909
upperneck -5.80098 -4.11903 0.728617
head 0.189346 -1.98379 0.581013
rclavicle -6.71892e-014 1.74931e-014
rhumerus -17.1695 -1.63607 -76.6642
rradius 32.1863
rwrist 30.7922
rhand -24.8624 -22.6887
rfingers 7.12502
rthumb 1.64443 -52.6621
lclavicle -6.71892e-014 1.74931e-014
lhumerus -38.1406 -10.1147 87.6325
lradius 41.0988
lwrist 16.453
lhand -24.0946 -5.90346
lfingers 7.12502
lthumb 2.38603 24.0629
rfemur -26.3595 -14.9268 25.221
rtibia 32.2277
rfoot -24.5068 -4.21819
rtoes 0.931972
lfemur -27.3419 0.405666 -11.8653
ltibia 28.5873
lfoot -11.3679 4.06412
ltoes 6.66559
885
root -0.685633 17.5341 2.05095 11.6495 11.095 -1.68488
lowerback 0.777398 3.17785 3.36956
upperback 4.7069 4.11843 1.91223
thorax 4.52314 2.14198 0.230252
lowerneck -11.5668 -3.36753 -3.13293
upperneck -5.72385 -4.06248 0.781485
head 0.206206 -1.95411 0.61377
rclavicle 3.61788e-014 2.8625e-014
rhumerus -16.9363 -2.1026 -76.9196
rradius 32.4348
rwrist 30.8025
rhand -25.1693 -22.731
rfingers 7.12502
rthumb 1.34805 -52.7065
lclavicle 3.61788e-014 2.8625e-014
lhumerus -38.0935 -10.1401 87.5409
lradius 41.4852
lwrist 16.7932
lhand -24.1216 -5.95317
lfingers 7.12502
lthumb 2.35992 24.0135
rfemur -26.1901 -14.2799 24.9447
rtibia 32.5208
rfoot -24.0889 -5.23688
rtoes 2.54857
lfemur -27.3096 0.270305 -12.0491
ltibia 29.0021
lfoot -11.7095 4.00879
ltoes 6.04634
886
root -0.659365 17.5214 2.05858 11.3452 11.3856 -1.74134
lowerback 0.881467 3.06345 3.75416
upperback 4.71218 3.96486 1.89618
thorax 4.49571 2.08102 -0.00997281
lowerneck -11.7016 -3.37133 -3.09556
upperneck -5.47337 -4.06799 0.659722
head 0.303701 -1.96108 0.565771
rclavicle 3.22031e-014 1.35174e-014
rhumerus -16.6137 -2.52428 -77.2046
rradius 32.6041
rwrist 30.9589
rhand -25.1827 -22.6488
rfingers 7.12502
rthumb 1.33508 -52.6244
lclavicle 3.22031e-014 1.35174e-014
lhumerus -37.8824 -10.0202 87.3838
lradius 41.6344
lwrist 16.9569
lhand -24.241 -6.3581
lfingers 7.12502
lthumb 2.24464 23.6098
rfemur -25.9713 -13.5762 24.7824
rtibia 32.872
rfoot -23.6277 -6.38944
rtoes 3.88702
lfemur -27.2333 0.229557 -12.1221
ltibia 29.509
lfoot -12.2551 3.89032
ltoes 6.13931
887
root -0.637038 17.506 2.06038 11.0758 11.6828 -1.59772
lowerback 1.0801 2.91723 3.91789
upperback 4.6808 3.78124 1.83188
thorax 4.36047 1.99614 -0.186197
lowerneck -11.6837 -3.263 -3.00971
upperneck -5.36288 -3.93632 0.484393
head 0.327238 -1.89974 0.501749
rclavicle -3.33958e-014 8.74653e-015
rhumerus -16.3535 -2.85328 -77.5474
rradius 32.8522
rwrist 31.021
rhand -25.2996 -22.7178
rfingers 7.12502
rthumb 1.22226 -52.6941
lclavicle -3.33958e-014 8.74653e-015
lhumerus -37.741 -9.88605 87.213
lradius 41.8355
lwrist 17.1013
lhand -24.3117 -6.88406
lfingers 7.12502
lthumb 2.17637 23.0846
rfemur -25.8255 -12.6365 24.4026
rtibia 33.3405
rfoot -23.1001 -7.80543
rtoes 5.66567
lfemur -27.2358 0.115843 -12.3937
ltibia 30.0806
lfoot -12.8452 3.78253
ltoes 6.63606
888
root -0.609582 17.4894 2.06386 10.7789 12.0528 -1.49305
lowerback 1.27201 2.74688 4.21723
upperback 4.6699 3.56367 1.76256
thorax 4.2575 1.89984 -0.441152
lowerneck -11.78 -3.25702 -3.0498
upperneck -5.06903 -3.91977 0.416455
head 0.435655 -1.89464 0.484517
rclavicle -2.54444e-014 0
rhumerus -16.12 -3.15221 -77.9121
rradius 33.1294
rwrist 31.0329
rhand -25.2051 -22.6583
rfingers 7.12502
rthumb 1.31346 -52.6341
lclavicle -2.54444e-014 0
lhumerus -37.5381 -9.84758 87.0646
lradius 42.0184
lwrist 17.3334
lhand -24.4081 -7.09763
lfingers 7.12502
lthumb 2.0832 22.8719
rfemur -25.6962 -11.9773 24.0835
rtibia 33.8819
rfoot -22.4868 -8.9239
rtoes 7.71875
lfemur -27.2695 0.0211394 -12.6582
ltibia 30.7356
lfoot -13.2345 3.51775
ltoes 7.67722
889
root -0.588284 17.4691 2.06409 10.5147 12.3941 -1.28077
lowerback 1.47932 2.56787 4.31695
upperback 4.65543 3.33916 1.68644
thorax 4.12652 1.79203 -0.59303
lowerneck -11.8309 -3.1535 -3.13873
upperneck -4.86181 -3.76852 0.382572
head 0.509146 -1.82004 0.492798
rclavicle 3.29983e-014 1.98785e-014
rhumerus -15.8816 -3.33125 -78.3184
rradius 33.4459
rwrist 30.9518
rhand -25.2368 -22.6595
rfingers 7.12502
rthumb 1.2829 -52.6354
lclavicle 3.29983e-014 1.98785e-014
lhumerus -37.3201 -9.88072 86.9498
lradius 42.1911
lwrist 17.5936
lhand -24.5743 -6.58073
lfingers 7.12502
lthumb 1.92268 23.3904
rfemur -25.6621 -10.9987 23.6589
rtibia 34.5497
rfoot -21.9643 -10.3613
rtoes 9.85199
lfemur -27.3438 -0.0838496 -13.0018
ltibia 31.4064
lfoot -13.6094 3.38969
ltoes 8.35293
890
root -0.566734 17.4443 2.06595 10.2009 12.7176 -1.16104
lowerback 1.69866 2.40253 4.51077
upperback 4.65233 3.13251 1.62361
thorax 4.00532 1.69628 -0.781546
lowerneck -11.8554 -3.09114 -3.09724
upperneck -4.6232 -3.68967 0.230842
head 0.583825 -1.7861 0.440085
rclavicle 3.45885e-014 -1.59028e-015
rhumerus -15.6819 -3.42773 -78.7502
rradius 33.84
rwrist 30.6935
rhand -25.0241 -22.7256
rfingers 7.12502
rthumb 1.48825 -52.7002
lclavicle 3.45885e-014 -1.59028e-015
lhumerus -37.0172 -9.75043 86.7702
lradius 42.2096
lwrist 17.6161
lhand -24.6797 -6.4275
lfingers 7.12502
lthumb 1.82089 23.5445
rfemur -25.6284 -9.942 23.3255
rtibia 35.2871
rfoot -21.6408 -11.7973
rtoes 11.6193
lfemur -27.4252 -0.194969 -13.2374
ltibia 32.1341
lfoot -13.9939 3.34926
ltoes 8.47438
